<svg id="visual" viewBox="0 0 16 16" width="16" height="16" xmlns="http://www.w3.org/2000/svg" xmlns:xlink="http://www.w3.org/1999/xlink" version="1.1"><path d="M746 600L764 600L764 545L791 545L791 491L809 491L809 436L800 436L800 382L773 382L773 327L764 327L764 273L746 273L746 218L791 218L791 164L800 164L800 109L809 109L809 55L818 55L818 0L900 0L900 55L900 55L900 109L900 109L900 164L900 164L900 218L900 218L900 273L900 273L900 327L900 327L900 382L900 382L900 436L900 436L900 491L900 491L900 545L900 545L900 600L900 600Z" fill="#fa7268"></path><path d="M665 600L593 600L593 545L548 545L548 491L629 491L629 436L719 436L719 382L656 382L656 327L656 327L656 273L620 273L620 218L557 218L557 164L593 164L593 109L647 109L647 55L674 55L674 0L819 0L819 55L810 55L810 109L801 109L801 164L792 164L792 218L747 218L747 273L765 273L765 327L774 327L774 382L801 382L801 436L810 436L810 491L792 491L792 545L765 545L765 600L747 600Z" fill="#ea5e66"></path><path d="M359 600L368 600L368 545L431 545L431 491L305 491L305 436L530 436L530 382L449 382L449 327L332 327L332 273L224 273L224 218L314 218L314 164L458 164L458 109L386 109L386 55L440 55L440 0L675 0L675 55L648 55L648 109L594 109L594 164L558 164L558 218L621 218L621 273L657 273L657 327L657 327L657 382L720 382L720 436L630 436L630 491L549 491L549 545L594 545L594 600L666 600Z" fill="#d84a64"></path><path d="M170 600L170 600L170 545L98 545L98 491L179 491L179 436L179 436L179 382L62 382L62 327L152 327L152 273L80 273L80 218L134 218L134 164L152 164L152 109L89 109L89 55L89 55L89 0L441 0L441 55L387 55L387 109L459 109L459 164L315 164L315 218L225 218L225 273L333 273L333 327L450 327L450 382L531 382L531 436L306 436L306 491L432 491L432 545L369 545L369 600L360 600Z" fill="#c53762"></path><path d="M0 600L0 600L0 545L0 545L0 491L0 491L0 436L0 436L0 382L0 382L0 327L0 327L0 273L0 273L0 218L0 218L0 164L0 164L0 109L0 109L0 55L0 55L0 0L90 0L90 55L90 55L90 109L153 109L153 164L135 164L135 218L81 218L81 273L153 273L153 327L63 327L63 382L180 382L180 436L180 436L180 491L99 491L99 545L171 545L171 600L171 600Z" fill="#b0235f"></path></svg>